<?xml version="1.0" encoding="UTF-8"?>
<svg width="512px" height="512px" viewBox="0 0 512 512" version="1.1" xmlns="http://www.w3.org/2000/svg" xmlns:xlink="http://www.w3.org/1999/xlink">
    <!-- Generator: Sketch 52.3 (67297) - http://www.bohemiancoding.com/sketch -->
    <title>movie-tickets</title>
    <desc>Created with Sketch.</desc>
    <g id="Page-1" stroke="none" stroke-width="1" fill="none" fill-rule="evenodd">
        <g id="movie-tickets">
            <path d="M429.953125,255.996094 L496.140625,189.804688 C503.953125,181.996094 503.953125,169.332031 496.140625,161.523438 L451.59375,116.972656 C435.972656,132.59375 410.644531,132.59375 395.023438,116.972656 C379.402344,101.351562 379.402344,76.027344 395.023438,60.40625 L350.476562,15.859375 C342.667969,8.046875 330.003906,8.046875 322.191406,15.859375 L82.058594,255.996094 L429.953125,255.996094 Z" id="Path" fill="#FFC66C"></path>
            <polygon id="Path" fill="#FFFFFF" points="90.96875 319.207031 305.925781 104.25 407.75 206.070312 192.789062 421.027344"></polygon>
            <path d="M462,378.996094 C462,356.902344 479.910156,338.996094 502,338.996094 L502,275.996094 C502,264.949219 493.046875,255.996094 482,255.996094 L30,255.996094 C18.953125,255.996094 10,264.949219 10,275.996094 L10,338.996094 C32.089844,338.996094 50,356.902344 50,378.996094 C50,401.085938 32.089844,418.996094 10,418.996094 L10,481.996094 C10,493.039062 18.953125,501.996094 30,501.996094 L482,501.996094 C493.046875,501.996094 502,493.039062 502,481.996094 L502,418.996094 C479.910156,418.996094 462,401.085938 462,378.996094 Z" id="Path" fill="#FFB954"></path>
            <polygon id="Path" fill="#FFFFFF" points="104 306.996094 408 306.996094 408 450.996094 104 450.996094"></polygon>
            <path d="M131.21875,216.835938 C133.851562,216.835938 136.429688,215.765625 138.289062,213.90625 C140.148438,212.042969 141.21875,209.464844 141.21875,206.835938 C141.21875,204.203125 140.148438,201.625 138.289062,199.765625 C136.429688,197.90625 133.851562,196.835938 131.21875,196.835938 C128.578125,196.835938 126.011719,197.90625 124.148438,199.765625 C122.289062,201.625 121.21875,204.203125 121.21875,206.835938 C121.21875,209.464844 122.289062,212.042969 124.148438,213.90625 C126.011719,215.765625 128.589844,216.835938 131.21875,216.835938 Z" id="Path" fill="#000000"></path>
            <path d="M274.46875,203.59375 C272.601562,201.734375 270.03125,200.664062 267.390625,200.664062 C264.761719,200.664062 262.179688,201.734375 260.320312,203.59375 C258.460938,205.453125 257.390625,208.035156 257.390625,210.664062 C257.390625,213.292969 258.460938,215.875 260.320312,217.734375 C262.179688,219.59375 264.761719,220.664062 267.390625,220.664062 C270.03125,220.664062 272.601562,219.59375 274.46875,217.734375 C276.328125,215.875 277.390625,213.304688 277.390625,210.664062 C277.390625,208.035156 276.328125,205.453125 274.46875,203.59375 Z" id="Path" fill="#000000"></path>
            <path d="M302.398438,185.664062 C305.03125,185.664062 307.609375,184.59375 309.46875,182.734375 C311.328125,180.875 312.390625,178.292969 312.390625,175.664062 C312.390625,173.035156 311.328125,170.453125 309.46875,168.59375 C307.609375,166.734375 305.03125,165.664062 302.398438,165.664062 C299.761719,165.664062 297.179688,166.734375 295.320312,168.59375 C293.460938,170.453125 292.390625,173.035156 292.390625,175.664062 C292.390625,178.292969 293.460938,180.875 295.320312,182.734375 C297.179688,184.59375 299.761719,185.664062 302.398438,185.664062 Z" id="Path" fill="#000000"></path>
            <path d="M482,245.996094 L454.097656,245.996094 L503.214844,196.878906 C508.878906,191.210938 512,183.675781 512,175.664062 C512,167.652344 508.878906,160.117188 503.214844,154.453125 L458.664062,109.902344 C454.761719,106 448.429688,106 444.523438,109.902344 C438.859375,115.570312 431.324219,118.691406 423.3125,118.691406 C415.296875,118.691406 407.765625,115.570312 402.097656,109.902344 C396.429688,104.238281 393.3125,96.703125 393.3125,88.691406 C393.3125,80.675781 396.433594,73.144531 402.097656,67.476562 C403.972656,65.601562 405.027344,63.058594 405.027344,60.40625 C405.027344,57.753906 403.972656,55.210938 402.097656,53.335938 L357.550781,8.789062 C351.882812,3.121094 344.351562,0 336.335938,0 C328.324219,0 320.789062,3.121094 315.125,8.789062 L149.960938,173.949219 C146.054688,177.851562 146.054688,184.183594 149.960938,188.089844 C153.867188,191.996094 160.199219,191.996094 164.105469,188.089844 L329.265625,22.929688 C331.15625,21.039062 333.664062,20 336.335938,20 C339.007812,20 341.519531,21.039062 343.40625,22.929688 L381.589844,61.109375 C376.203125,69.21875 373.3125,78.734375 373.3125,88.691406 C373.3125,102.046875 378.511719,114.601562 387.957031,124.046875 C397.402344,133.488281 409.957031,138.691406 423.3125,138.691406 C433.269531,138.691406 442.78125,135.800781 450.894531,130.414062 L489.074219,168.59375 C492.972656,172.492188 492.972656,178.835938 489.074219,182.734375 L425.8125,245.996094 L381.972656,245.996094 L414.828125,213.140625 C418.730469,209.234375 418.730469,202.902344 414.828125,199 L313.003906,97.175781 C309.097656,93.269531 302.765625,93.269531 298.859375,97.175781 L150.039062,245.996094 L30,245.996094 C13.457031,245.996094 0,259.453125 0,275.996094 L0,338.996094 C0,344.515625 4.476562,348.996094 10,348.996094 C26.542969,348.996094 40,362.453125 40,378.996094 C40,395.535156 26.542969,408.996094 10,408.996094 C4.476562,408.996094 0,413.472656 0,418.996094 L0,481.996094 C0,498.535156 13.457031,511.996094 30,511.996094 L482,511.996094 C498.542969,511.996094 512,498.535156 512,481.996094 L512,418.996094 C512,413.472656 507.523438,408.996094 502,408.996094 C485.457031,408.996094 472,395.535156 472,378.996094 C472,362.453125 485.457031,348.996094 502,348.996094 C507.523438,348.996094 512,344.515625 512,338.996094 L512,275.996094 C512,259.453125 498.542969,245.996094 482,245.996094 Z M305.929688,118.386719 L393.613281,206.070312 L353.6875,245.996094 L314.089844,245.996094 L343.40625,216.675781 C347.3125,212.773438 347.3125,206.441406 343.40625,202.535156 C339.503906,198.628906 333.171875,198.628906 329.265625,202.535156 L285.804688,245.992188 L178.324219,245.992188 L305.929688,118.386719 Z M492,330 C469.207031,334.644531 452,354.847656 452,378.996094 C452,403.140625 469.207031,423.34375 492,427.992188 L492,481.996094 C492,487.507812 487.515625,491.996094 482,491.996094 L30,491.996094 C24.484375,491.996094 20,487.507812 20,481.996094 L20,427.992188 C42.792969,423.34375 60,403.140625 60,378.996094 C60,354.847656 42.792969,334.648438 20,330 L20,275.996094 C20,270.480469 24.484375,265.996094 30,265.996094 L482,265.996094 C487.515625,265.996094 492,270.480469 492,275.996094 L492,330 Z" id="Shape" fill="#000000" fill-rule="nonzero"></path>
            <path d="M213.570312,362.066406 C215.429688,360.203125 216.5,357.625 216.5,354.996094 C216.5,352.363281 215.429688,349.785156 213.570312,347.925781 C211.710938,346.066406 209.128906,344.996094 206.5,344.996094 C203.871094,344.996094 201.289062,346.066406 199.429688,347.925781 C197.570312,349.785156 196.5,352.363281 196.5,354.996094 C196.5,357.625 197.570312,360.203125 199.429688,362.066406 C201.289062,363.925781 203.871094,364.996094 206.5,364.996094 C209.128906,364.996094 211.710938,363.925781 213.570312,362.066406 Z" id="Path" fill="#000000"></path>
            <path d="M312.570312,362.066406 C314.429688,360.203125 315.5,357.625 315.5,354.996094 C315.5,352.363281 314.429688,349.785156 312.570312,347.925781 C310.710938,346.066406 308.128906,344.996094 305.5,344.996094 C302.871094,344.996094 300.289062,346.066406 298.429688,347.925781 C296.570312,349.785156 295.5,352.363281 295.5,354.996094 C295.5,357.625 296.570312,360.203125 298.429688,362.066406 C300.289062,363.925781 302.871094,364.996094 305.5,364.996094 C308.128906,364.996094 310.710938,363.925781 312.570312,362.066406 Z" id="Path" fill="#000000"></path>
            <path d="M263.070312,362.066406 C264.929688,360.203125 266,357.625 266,354.996094 C266,352.363281 264.929688,349.785156 263.070312,347.925781 C261.210938,346.066406 258.628906,344.996094 256,344.996094 C253.371094,344.996094 250.789062,346.066406 248.929688,347.925781 C247.070312,349.785156 246,352.363281 246,354.996094 C246,357.625 247.070312,360.203125 248.929688,362.066406 C250.789062,363.925781 253.371094,364.996094 256,364.996094 C258.628906,364.996094 261.210938,363.925781 263.070312,362.066406 Z" id="Path" fill="#000000"></path>
            <path d="M157,364.996094 C159.628906,364.996094 162.210938,363.925781 164.070312,362.066406 C165.929688,360.203125 167,357.625 167,354.996094 C167,352.363281 165.929688,349.785156 164.070312,347.925781 C162.210938,346.066406 159.628906,344.996094 157,344.996094 C154.371094,344.996094 151.789062,346.066406 149.929688,347.925781 C148.070312,349.785156 147,352.363281 147,354.996094 C147,357.625 148.070312,360.203125 149.929688,362.066406 C151.789062,363.925781 154.371094,364.996094 157,364.996094 Z" id="Path" fill="#000000"></path>
            <path d="M362.070312,362.066406 C363.929688,360.203125 365,357.625 365,354.996094 C365,352.363281 363.929688,349.785156 362.070312,347.925781 C360.210938,346.066406 357.628906,344.996094 355,344.996094 C352.371094,344.996094 349.789062,346.066406 347.929688,347.925781 C346.070312,349.785156 345,352.363281 345,354.996094 C345,357.625 346.070312,360.203125 347.929688,362.066406 C349.789062,363.925781 352.371094,364.996094 355,364.996094 C357.628906,364.996094 360.210938,363.925781 362.070312,362.066406 Z" id="Path" fill="#000000"></path>
            <path d="M157,412.996094 L355,412.996094 C360.523438,412.996094 365,408.515625 365,402.996094 C365,397.472656 360.523438,392.996094 355,392.996094 L157,392.996094 C151.476562,392.996094 147,397.472656 147,402.996094 C147,408.515625 151.476562,412.996094 157,412.996094 Z" id="Path" fill="#000000"></path>
            <path d="M193.320312,440.996094 C190.691406,440.996094 188.109375,442.066406 186.25,443.925781 C184.390625,445.785156 183.320312,448.363281 183.320312,450.996094 C183.320312,453.625 184.390625,456.203125 186.25,458.066406 C188.109375,459.925781 190.691406,460.996094 193.320312,460.996094 C195.960938,460.996094 198.53125,459.925781 200.390625,458.066406 C202.261719,456.203125 203.320312,453.625 203.320312,450.996094 C203.320312,448.363281 202.261719,445.785156 200.390625,443.925781 C198.53125,442.066406 195.960938,440.996094 193.320312,440.996094 Z" id="Path" fill="#000000"></path>
            <path d="M408,296.996094 L104,296.996094 C98.476562,296.996094 94,301.472656 94,306.996094 L94,450.996094 C94,456.515625 98.476562,460.996094 104,460.996094 L145.65625,460.996094 C151.179688,460.996094 155.65625,456.515625 155.65625,450.996094 C155.65625,445.472656 151.179688,440.996094 145.65625,440.996094 L114,440.996094 L114,316.996094 L398,316.996094 L398,440.996094 L235.65625,440.996094 C230.132812,440.996094 225.65625,445.472656 225.65625,450.996094 C225.65625,456.515625 230.132812,460.996094 235.65625,460.996094 L408,460.996094 C413.523438,460.996094 418,456.515625 418,450.996094 L418,306.996094 C418,301.472656 413.523438,296.996094 408,296.996094 Z" id="Path" fill="#000000"></path>
        </g>
    </g>
</svg>